<svg xmlns="http://www.w3.org/2000/svg" viewBox="0 0 318.65 45.15"><defs><style>.cls-1{fill:#fff;}</style></defs><g id="Layer_2" data-name="Layer 2"><g id="Layer_1-2" data-name="Layer 1"><path class="cls-1" d="M29.92,34.29l-3-7h-15l-3,7H0L15.81.44h7L38.67,34.29ZM14.75,20.65h9.31L19.42,9.79Z"/><path class="cls-1" d="M73.67,32.56a6.38,6.38,0,0,1,3.89,3.09l3.75,6.08-7.54,3.42-5.38-8.8a4,4,0,0,0-3.64-1.62,18.26,18.26,0,0,1-9-2.13,14.56,14.56,0,0,1-5.88-6.06,19.55,19.55,0,0,1-2.06-9.21,19.48,19.48,0,0,1,2.06-9.18,14.4,14.4,0,0,1,5.88-6,18.26,18.26,0,0,1,9-2.13,18.15,18.15,0,0,1,9,2.13,14.22,14.22,0,0,1,5.85,6,19.6,19.6,0,0,1,2,9.18,19.46,19.46,0,0,1-2.06,9.19A14.23,14.23,0,0,1,73.67,32.56ZM64.75,28a7.26,7.26,0,0,0,6-2.71c1.44-1.82,2.17-4.46,2.17-7.92s-.73-6.08-2.19-7.87a7.3,7.3,0,0,0-6-2.69,7.32,7.32,0,0,0-6,2.67q-2.15,2.67-2.15,7.89t2.15,7.94A7.3,7.3,0,0,0,64.75,28Z"/><path class="cls-1" d="M109.64,34.73q-7.33,0-11.17-3.75T94.66,20V.44h8.64V20.38A8.65,8.65,0,0,0,104.93,26a6.64,6.64,0,0,0,9.42,0A8.6,8.6,0,0,0,116,20.38V.44h8.69V20q0,7.17-3.88,10.94T109.64,34.73Z"/><path class="cls-1" d="M164.39,34.29l-3-7h-15l-3,7h-8.9L150.28.44h7l15.86,33.85ZM149.22,20.65h9.31L153.89,9.79Z"/><path class="cls-1" d="M213.58,34.29h-9.71L198,23.48a3.77,3.77,0,0,0-3.5-1.88h-2.68V34.29h-8.69V.44h16.12c4.1,0,7.17.89,9.23,2.66s3.11,4.35,3.11,7.71a10.16,10.16,0,0,1-2.11,6.5,10.33,10.33,0,0,1-6,3.59,6.93,6.93,0,0,1,4.67,3.79ZM197.87,15a7.5,7.5,0,0,0,4.21-.9,3.43,3.43,0,0,0,1.27-3A3.58,3.58,0,0,0,202.08,8a7.29,7.29,0,0,0-4.21-.94h-6.15V15Z"/><path class="cls-1" d="M225.06,34.29V.44h8.84V34.29Z"/><path class="cls-1" d="M262.79,34.73q-7.34,0-11.16-3.75t-3.82-11V.44h8.65V20.38A8.65,8.65,0,0,0,258.08,26a6.64,6.64,0,0,0,9.42,0,8.6,8.6,0,0,0,1.65-5.62V.44h8.68V20q0,7.17-3.87,10.94T262.79,34.73Z"/><path class="cls-1" d="M304,34.73a28.52,28.52,0,0,1-7.5-1,18.15,18.15,0,0,1-6-2.71l2.73-6.23a21.8,21.8,0,0,0,5.23,2.36,20.12,20.12,0,0,0,5.63.81,9.58,9.58,0,0,0,4.37-.79A2.45,2.45,0,0,0,310,24.94a2.42,2.42,0,0,0-1.37-2.13,19.32,19.32,0,0,0-5.19-1.62,31,31,0,0,1-7.46-2.4,8.91,8.91,0,0,1-3.77-3.27,9.23,9.23,0,0,1-1.06-4.62,9.46,9.46,0,0,1,1.75-5.59,11.58,11.58,0,0,1,4.94-3.89A17.75,17.75,0,0,1,305.17,0a24.23,24.23,0,0,1,7.06,1,14.77,14.77,0,0,1,5.38,2.67l-2.69,6.23a16.93,16.93,0,0,0-9.71-3.17,7.35,7.35,0,0,0-4,.94,2.82,2.82,0,0,0-1.48,2.48,2.16,2.16,0,0,0,.52,1.5,5.72,5.72,0,0,0,2,1.12,29.09,29.09,0,0,0,4.27,1.13,28,28,0,0,1,7.25,2.41,9.36,9.36,0,0,1,3.75,3.3,8.59,8.59,0,0,1,1.11,4.45,9.15,9.15,0,0,1-3.84,7.82Q311,34.72,304,34.73Z"/></g></g></svg>