<svg xmlns="http://www.w3.org/2000/svg" viewBox="0 0 57.87 24"><defs><style>.cls-1{fill:#fff;}</style></defs><g id="Layer_2" data-name="Layer 2"><g id="Layer_1-2" data-name="Layer 1"><path class="cls-1" d="M53.75,0h-.3a4.36,4.36,0,0,0-4.12,4.1,3.92,3.92,0,0,0,.76,2.64L48.81,7.89l-7.86,7h0a4.33,4.33,0,0,0-5.77-1.51,3.88,3.88,0,0,0-1.2,1h0l-8.54-7.6a4.17,4.17,0,0,0,0-.79.44.44,0,0,1,0-.1.89.89,0,0,0,0-.15,4.27,4.27,0,0,0-8.47.78v0a2.8,2.8,0,0,0,.07.77l-10.14,9a4.55,4.55,0,0,0-2.55-.91C1.87,15.27.13,17.46,0,19.69A4.33,4.33,0,0,0,4.29,24c2.31.13,4-1.89,4.24-4a1.12,1.12,0,0,0,0-.27,1.09,1.09,0,0,0,0-.26A4.63,4.63,0,0,0,8,17.67L17.74,9h0a3.11,3.11,0,0,0,.23.28,4.45,4.45,0,0,0,3.41,1.47,4.13,4.13,0,0,0,3.46-2.14h0c2.69,2.38,5.62,5,8.31,7.4a4.53,4.53,0,0,0,.46,3.28,4.32,4.32,0,0,0,5.59,1.61,4.13,4.13,0,0,0,2.29-4.14l9.2-8.19L51.43,8h0a4.4,4.4,0,0,0,2.22.63l.32,0a4.33,4.33,0,0,0,3.89-4.47A4.33,4.33,0,0,0,53.75,0ZM1.8,19.69c-.18-3.22,4.8-3.2,5,0A2.49,2.49,0,0,1,1.8,19.69ZM21.39,9a2.5,2.5,0,1,1,2.25-2.88A2.52,2.52,0,0,1,21.39,9Zm17.09,10.3a2.48,2.48,0,0,1-3.21-.73A2.54,2.54,0,0,1,35.9,15a2.5,2.5,0,0,1,3.59.9A2.54,2.54,0,0,1,38.48,19.29ZM53.93,6.79a2.5,2.5,0,1,1-.33-5,2.53,2.53,0,0,1,2.48,2.31A2.56,2.56,0,0,1,53.93,6.79Z"/></g></g></svg>