<svg xmlns="http://www.w3.org/2000/svg" xmlns:xlink="http://www.w3.org/1999/xlink" viewBox="0 0 107.31 83.82"><defs><style>.cls-1{fill:none;}.cls-2{clip-path:url(#clip-path);}.cls-3{fill:#079ba2;fill-rule:evenodd;}</style><clipPath id="clip-path" transform="translate(-1.16 -1.35)"><rect class="cls-1" width="109.32" height="85"/></clipPath></defs><g id="Layer_2" data-name="Layer 2"><g id="Layer_1-2" data-name="Layer 1"><g class="cls-2"><path class="cls-3" d="M85,32.62a33.21,33.21,0,0,0-.46-3.41c-.22-1.12-.48-2.24-.81-3.34a31.12,31.12,0,0,0-1.14-3.24,29.45,29.45,0,0,0-1.45-3.12,34,34,0,0,0-1.77-3c-.63-1-1.32-1.87-2-2.76S75.84,12.06,75,11.25,73.35,9.68,72.46,9s-1.82-1.39-2.78-2a34,34,0,0,0-6.1-3.17,32.85,32.85,0,0,0-3.26-1.1c-1.1-.31-2.22-.57-3.35-.78s-2.27-.34-3.41-.43-2.3-.11-3.44-.09-2.29.12-3.43.27a32,32,0,0,0-3.39.6c-1.12.26-2.22.57-3.31.94a33.79,33.79,0,0,0-3.2,1.27,32.61,32.61,0,0,0-3,1.58c-1,.58-2,1.21-2.89,1.88S29,9.3,28.18,10.07a31,31,0,0,0-2.44,2.42,32.4,32.4,0,0,0-2.19,2.65A34.29,34.29,0,0,0,20,21.05c-.48,1-.91,2.1-1.29,3.18s-.71,2.19-1,3.3-.47,2.24-.63,3.38-.25,2.28-.29,3.43,0,2.29.05,3.44.21,2.28.4,3.41a22.83,22.83,0,0,0-3.72,1.47,22.46,22.46,0,0,0-3.41,2.1,22.82,22.82,0,0,0-3,2.67,23.31,23.31,0,0,0-2.46,3.16,23,23,0,0,0-1.85,3.55A22.27,22.27,0,0,0,1.67,58a22.24,22.24,0,0,0-.28,8,21.78,21.78,0,0,0,.92,3.89A23.38,23.38,0,0,0,3.9,73.49a23.2,23.2,0,0,0,2.23,3.32,21.64,21.64,0,0,0,2.78,2.88A21.86,21.86,0,0,0,12.15,82a22.57,22.57,0,0,0,7.48,2.79,23,23,0,0,0,4,.36h58.6A26.68,26.68,0,0,0,92,83.27,26.4,26.4,0,0,0,96.37,81a25.94,25.94,0,0,0,3.92-3.08,26.57,26.57,0,0,0,3.26-3.76,25.63,25.63,0,0,0,2.5-4.3,26,26,0,0,0,1.65-4.7,26.56,26.56,0,0,0,.53-9.89,26.29,26.29,0,0,0-3.17-9.39,26.89,26.89,0,0,0-2.84-4.09,26.55,26.55,0,0,0-7.72-6.21,26.45,26.45,0,0,0-4.6-1.92,26.18,26.18,0,0,0-4.87-1Zm-2.8,46.73H23.62a17,17,0,0,1-3.09-.3,16.38,16.38,0,0,1-5.75-2.27,14.9,14.9,0,0,1-2.46-1.89,15.61,15.61,0,0,1-2.06-2.31,17.54,17.54,0,0,1-1.6-2.66A17,17,0,0,1,7.58,67,15.9,15.9,0,0,1,7.07,64a16.06,16.06,0,0,1,.06-3.1,16.61,16.61,0,0,1,.64-3A17,17,0,0,1,9,54.94a16.49,16.49,0,0,1,1.71-2.58,16.27,16.27,0,0,1,2.15-2.24,15.51,15.51,0,0,1,2.54-1.79A16.41,16.41,0,0,1,18.17,47a17.19,17.19,0,0,1,3-.74,2.91,2.91,0,0,0,1.14-.42,2.92,2.92,0,0,0,1.31-2,2.79,2.79,0,0,0-.06-1.22A26.91,26.91,0,0,1,23,39.72a27.47,27.47,0,0,1-.31-3c0-1,0-2,0-3a29.72,29.72,0,0,1,.34-3c.17-1,.39-2,.65-2.95a26.4,26.4,0,0,1,1-2.84,27.15,27.15,0,0,1,1.26-2.74,25.83,25.83,0,0,1,1.54-2.58,27.88,27.88,0,0,1,8.6-8.3,26,26,0,0,1,2.64-1.45c.9-.43,1.83-.82,2.77-1.16a29,29,0,0,1,2.89-.86c1-.23,2-.41,3-.54a27.56,27.56,0,0,1,3-.24c1,0,2,0,3,.09a29.65,29.65,0,0,1,3,.41,25.93,25.93,0,0,1,2.92.72,29.13,29.13,0,0,1,2.84,1c.92.4,1.82.84,2.7,1.33a29.29,29.29,0,0,1,2.55,1.59c.82.59,1.6,1.2,2.36,1.87a28.52,28.52,0,0,1,2.16,2.1c.68.74,1.31,1.51,1.92,2.32A28.67,28.67,0,0,1,75.39,21a27.67,27.67,0,0,1,2.48,5.47,26.43,26.43,0,0,1,.79,2.9,25.49,25.49,0,0,1,.48,3,27.47,27.47,0,0,1,.17,3,2.82,2.82,0,0,0,.22,1.11,2.63,2.63,0,0,0,.63.95,3,3,0,0,0,.94.63,2.87,2.87,0,0,0,1.12.22,21.08,21.08,0,0,1,4,.46A21.61,21.61,0,0,1,90,40a20.51,20.51,0,0,1,9,7.57,20,20,0,0,1,1.85,3.52,20.29,20.29,0,0,1,1.15,3.8,20.77,20.77,0,0,1,0,7.91,20.74,20.74,0,0,1-3,7.32,20.54,20.54,0,0,1-2.49,3.09,20.19,20.19,0,0,1-3,2.56,20.47,20.47,0,0,1-7.26,3.13,20.28,20.28,0,0,1-4,.46Z" transform="translate(-1.16 -1.35)"/></g><path class="cls-3" d="M33.32,32.64a18.68,18.68,0,0,1,1.07-3,19.84,19.84,0,0,1,1.54-2.78,19.24,19.24,0,0,1,4.32-4.62,19.33,19.33,0,0,1,2.67-1.73,19.67,19.67,0,0,1,2.91-1.26,18.4,18.4,0,0,1,3.09-.78,19.62,19.62,0,0,1,3.16-.26A3,3,0,0,0,53.23,18a2.75,2.75,0,0,0,1-.63,2.66,2.66,0,0,0,.66-1,2.8,2.8,0,0,0,0-2.27,2.66,2.66,0,0,0-.66-1,2.75,2.75,0,0,0-1-.63,3,3,0,0,0-1.15-.19,24.61,24.61,0,0,0-4.11.35,24,24,0,0,0-4,1,26,26,0,0,0-3.79,1.65,24.44,24.44,0,0,0-3.47,2.24,25.09,25.09,0,0,0-3.06,2.77,25.66,25.66,0,0,0-2.56,3.24,25.08,25.08,0,0,0-2,3.62,24.3,24.3,0,0,0-1.38,3.89,2.76,2.76,0,0,0-.09,1.14,3,3,0,0,0,1.12,2,2.89,2.89,0,0,0,2.17.58A2.79,2.79,0,0,0,32,34.44a2.76,2.76,0,0,0,.86-.77A2.8,2.8,0,0,0,33.32,32.64Z" transform="translate(-1.16 -1.35)"/><path class="cls-3" d="M46.68,36.58a15.13,15.13,0,0,0-2.85.28,15.56,15.56,0,0,0-2.75.83,14.62,14.62,0,0,0-6.56,5.39,15.27,15.27,0,0,0-1.35,2.52,15.56,15.56,0,0,0-.83,2.75,15.13,15.13,0,0,0-.28,2.85,14.34,14.34,0,0,0,.28,2.85,15.56,15.56,0,0,0,.83,2.75,15.27,15.27,0,0,0,1.35,2.52,14.88,14.88,0,0,0,6.56,5.39,14.73,14.73,0,0,0,2.75.82,14.35,14.35,0,0,0,2.85.29,15,15,0,0,0,5.59-1.11A14.86,14.86,0,0,0,57,61.53a13.81,13.81,0,0,0,1.82-2.21,15.27,15.27,0,0,0,1.35-2.52A14,14,0,0,0,61,54.05a14.64,14.64,0,0,0,0-5.7,14.08,14.08,0,0,0-.84-2.75A14.3,14.3,0,0,0,57,40.87a14.34,14.34,0,0,0-2.22-1.82,15,15,0,0,0-2.53-1.36,14.62,14.62,0,0,0-5.59-1.11Zm0,23.41A9.8,9.8,0,0,1,45,59.83a9.65,9.65,0,0,1-1.66-.51,8.78,8.78,0,0,1-1.51-.81,8.29,8.29,0,0,1-1.34-1.09,8.75,8.75,0,0,1-1.09-1.34,9.16,9.16,0,0,1-.81-1.51,8.7,8.7,0,0,1-.68-3.37,8.6,8.6,0,0,1,.68-3.37,8.78,8.78,0,0,1,.81-1.51,8.44,8.44,0,0,1,2.43-2.43,8.14,8.14,0,0,1,1.51-.81,8.45,8.45,0,0,1,3.37-.67,9,9,0,0,1,1.72.16,8.43,8.43,0,0,1,1.64.51,8,8,0,0,1,1.53.81A9.18,9.18,0,0,1,52.9,45,9.57,9.57,0,0,1,54,46.32a8.73,8.73,0,0,1,.8,1.51,7.63,7.63,0,0,1,.5,1.65,8.29,8.29,0,0,1,.17,1.72,8.13,8.13,0,0,1-.17,1.71,7.55,7.55,0,0,1-.5,1.66A8.47,8.47,0,0,1,54,56.08a8.78,8.78,0,0,1-1.09,1.33A8.75,8.75,0,0,1,50,59.32a9.44,9.44,0,0,1-1.64.51A9.92,9.92,0,0,1,46.68,60Z" transform="translate(-1.16 -1.35)"/><path class="cls-3" d="M73.91,66.35H70.6c.93-.8,1.76-1.47,2.43-2.1a8.92,8.92,0,0,0,3-4.82,7.12,7.12,0,0,0,.11-1.53A6.48,6.48,0,0,0,76,56.39,6,6,0,0,0,75.42,55a6.85,6.85,0,0,0-.83-1.28,7.88,7.88,0,0,0-1.1-1.06,6.76,6.76,0,0,0-1.31-.8,7.19,7.19,0,0,0-1.44-.49,7,7,0,0,0-1.52-.16,7.3,7.3,0,0,0-3,.06,7.19,7.19,0,0,0-1.44.49,7.69,7.69,0,0,0-1.32.79,8.39,8.39,0,0,0-1.11,1,7.3,7.3,0,0,0-.88,1.26,7.14,7.14,0,0,0-.89,2.9,2.67,2.67,0,0,0,.15,1.12,2.9,2.9,0,0,0,.56,1,3.1,3.1,0,0,0,.89.68,3.06,3.06,0,0,0,1.09.3,2.86,2.86,0,0,0,2.11-.69,3,3,0,0,0,.7-.89,2.74,2.74,0,0,0,.31-1.08c.08-1.12,1.3-1.26,2.27-1.15s1.94.33,1.75,1.27-1.08,1.58-2.19,2.53a82.12,82.12,0,0,0-7.09,6.49,2.83,2.83,0,0,0-.75,1.49,2.9,2.9,0,0,0,.19,1.67,2.81,2.81,0,0,0,1.08,1.28,2.86,2.86,0,0,0,1.6.48H73.9A2.84,2.84,0,0,0,75,72a2.78,2.78,0,0,0,.92-.64,3,3,0,0,0,.6-.93,2.93,2.93,0,0,0,0-2.18,3,3,0,0,0-.6-.93,2.93,2.93,0,0,0-.92-.64,2.85,2.85,0,0,0-1.08-.26Z" transform="translate(-1.16 -1.35)"/></g></g></svg>