<svg xmlns="http://www.w3.org/2000/svg" viewBox="0 0 23.91 23.92"><defs><style>.cls-1{fill:#fff;}</style></defs><g id="Layer_2" data-name="Layer 2"><g id="Layer_1-2" data-name="Layer 1"><path class="cls-1" d="M12.38.18a.53.53,0,0,0-.2-.13.55.55,0,0,0-.46,0,.53.53,0,0,0-.2.13L.17,11.53a.53.53,0,0,0-.13.2.58.58,0,0,0,0,.45.53.53,0,0,0,.13.2.8.8,0,0,0,.19.13.59.59,0,0,0,.23.05.59.59,0,0,0,.23-.05.59.59,0,0,0,.2-.12L2.42,11v9.89a2.88,2.88,0,0,0,.06.59,3.43,3.43,0,0,0,.17.57,3.84,3.84,0,0,0,.28.53,4.22,4.22,0,0,0,.38.46,3.24,3.24,0,0,0,.46.37,3.39,3.39,0,0,0,.53.29,3.43,3.43,0,0,0,.57.17,3,3,0,0,0,.59.06h13a3,3,0,0,0,.6-.06,4.11,4.11,0,0,0,.57-.17,3.29,3.29,0,0,0,.52-.29,2.76,2.76,0,0,0,.46-.37,3.32,3.32,0,0,0,.38-.46,3,3,0,0,0,.28-.53,2.7,2.7,0,0,0,.18-.57,3.8,3.8,0,0,0,.06-.59V11l1.39,1.4a.69.69,0,0,0,.2.13.68.68,0,0,0,.46,0,.69.69,0,0,0,.2-.13.53.53,0,0,0,.13-.2.55.55,0,0,0,0-.46.53.53,0,0,0-.13-.2Zm7.88,20.7a1.9,1.9,0,0,1-.14.7,1.67,1.67,0,0,1-.4.59,1.69,1.69,0,0,1-.59.39,1.82,1.82,0,0,1-.7.14h-13a1.9,1.9,0,0,1-.7-.14,1.77,1.77,0,0,1-1-1,1.72,1.72,0,0,1-.14-.7V9.78L12,1.47l8.31,8.31Z"/></g></g></svg>