<?xml version="1.0" encoding="utf-8"?>
<!-- Generator: Adobe Illustrator 25.0.1, SVG Export Plug-In . SVG Version: 6.00 Build 0)  -->
<svg version="1.1" id="Layer_1" xmlns="http://www.w3.org/2000/svg" xmlns:xlink="http://www.w3.org/1999/xlink" x="0px" y="0px"
	 viewBox="0 0 414 896" style="enable-background:new 0 0 414 896;" xml:space="preserve">
<style type="text/css">
	.st0{clip-path:url(#SVGID_2_);}
	.st1{fill:#FFFFFF;}
	.st2{fill:#00C2CB;}
	.st3{clip-path:url(#SVGID_5_);}
	.st4{fill-rule:evenodd;clip-rule:evenodd;fill:url(#SVGID_6_);}
	.st5{clip-path:url(#SVGID_8_);}
	.st6{clip-path:url(#SVGID_10_);}
	.st7{clip-path:url(#SVGID_12_);}
	.st8{fill:#0F8B8F;}
	.st9{clip-path:url(#SVGID_14_);}
</style>
<g>
	<g>
		<defs>
			<rect id="SVGID_1_" y="0.7" width="413.3" height="894.6"/>
		</defs>
		<clipPath id="SVGID_2_">
			<use xlink:href="#SVGID_1_"  style="overflow:visible;"/>
		</clipPath>
		<g class="st0">
			<path class="st1" d="M0,0.7h414v906H0V0.7z"/>
			<path class="st1" d="M0,0.7h414v896H0V0.7z"/>
			<path class="st2" d="M0,0.7h414v896H0V0.7z"/>
		</g>
	</g>
	<g>
		<defs>
			<rect id="SVGID_3_" y="482.7" width="413.3" height="412.6"/>
		</defs>
		<linearGradient id="SVGID_4_" gradientUnits="userSpaceOnUse" x1="206.6667" y1="482.7188" x2="206.6667" y2="895.2761">
			<stop  offset="2.237672e-07" style="stop-color:#11CBC7;stop-opacity:0"/>
			<stop  offset="0.3415" style="stop-color:#16CCC4;stop-opacity:0.741"/>
			<stop  offset="0.4609" style="stop-color:#19CDC2"/>
			<stop  offset="0.7218" style="stop-color:#10B8A8"/>
			<stop  offset="0.8547" style="stop-color:#0BAC99"/>
		</linearGradient>
		<use xlink:href="#SVGID_3_"  style="overflow:visible;fill:url(#SVGID_4_);"/>
		<clipPath id="SVGID_5_">
			<use xlink:href="#SVGID_3_"  style="overflow:visible;"/>
		</clipPath>
		<g class="st3">
			<linearGradient id="SVGID_6_" gradientUnits="userSpaceOnUse" x1="206.6667" y1="482.724" x2="206.6667" y2="895.2812">
				<stop  offset="2.237672e-07" style="stop-color:#11CBC7;stop-opacity:0"/>
				<stop  offset="0.3415" style="stop-color:#16CCC4;stop-opacity:0.741"/>
				<stop  offset="0.4609" style="stop-color:#19CDC2"/>
				<stop  offset="0.7218" style="stop-color:#10B8A8"/>
				<stop  offset="0.8547" style="stop-color:#0BAC99"/>
			</linearGradient>
			<path class="st4" d="M0,895.3V482.7h413.3v412.6H0z"/>
		</g>
	</g>
</g>
<g>
	<g>
		<g transform="translate(35.431355, 339.215988)">
			<g>
				<path class="st1" d="M40.7,113.1l-3-7h-15l-3,7h-8.9l15.8-33.9h7l15.9,33.9H40.7z M25.5,99.4h9.3l-4.6-10.9L25.5,99.4z"/>
			</g>
		</g>
	</g>
	<g>
		<g transform="translate(68.821316, 339.215988)">
			<g>
				<path class="st1" d="M51,111.3c1.6,0.4,2.9,1.4,3.9,3.1l3.8,6.1l-7.5,3.4l-5.4-8.8c-0.7-1.1-1.9-1.6-3.6-1.6
					c-3.5,0-6.5-0.7-9-2.1c-2.5-1.4-4.5-3.4-5.9-6.1c-1.4-2.6-2.1-5.7-2.1-9.2c0-3.5,0.7-6.6,2.1-9.2c1.4-2.6,3.3-4.6,5.9-6
					c2.6-1.4,5.6-2.1,9-2.1s6.5,0.7,9,2.1c2.5,1.4,4.5,3.4,5.9,6c1.4,2.6,2,5.7,2,9.2c0,3.5-0.7,6.6-2.1,9.2S53.6,109.9,51,111.3z
					 M42.1,106.7c2.6,0,4.6-0.9,6-2.7c1.4-1.8,2.2-4.5,2.2-7.9s-0.7-6.1-2.2-7.9c-1.5-1.8-3.5-2.7-6-2.7c-2.6,0-4.6,0.9-6,2.7
					c-1.4,1.8-2.1,4.4-2.1,7.9c0,3.5,0.7,6.1,2.1,7.9C37.5,105.8,39.5,106.7,42.1,106.7z"/>
			</g>
		</g>
	</g>
	<g>
		<g transform="translate(103.471942, 339.215988)">
			<g>
				<path class="st1" d="M52.3,113.5c-4.9,0-8.6-1.2-11.2-3.8c-2.5-2.5-3.8-6.2-3.8-11V79.2H46v19.9c0,2.4,0.5,4.3,1.6,5.6
					c1.1,1.3,2.7,2,4.7,2c2.1,0,3.6-0.7,4.7-2c1.1-1.3,1.6-3.2,1.6-5.6V79.2h8.7v19.6c0,4.8-1.3,8.4-3.9,10.9
					C60.9,112.3,57.2,113.5,52.3,113.5z"/>
			</g>
		</g>
	</g>
	<g>
		<g transform="translate(136.285598, 339.215988)">
			<g>
				<path class="st1" d="M74.3,113.1l-3-7h-15l-3,7h-8.9l15.8-33.9h7L83,113.1H74.3z M59.1,99.4h9.3l-4.6-10.9L59.1,99.4z"/>
			</g>
		</g>
	</g>
	<g>
		<g transform="translate(169.675565, 339.215988)">
			<g>
				<path class="st1" d="M90.1,113.1h-9.7l-5.9-10.8c-0.7-1.2-1.9-1.9-3.5-1.9h-2.7v12.7h-8.7V79.2h16.1c4.1,0,7.2,0.9,9.2,2.7
					c2.1,1.8,3.1,4.3,3.1,7.7c0,2.6-0.7,4.7-2.1,6.5c-1.4,1.8-3.4,3-6,3.6c2,0.4,3.5,1.7,4.7,3.8L90.1,113.1z M74.4,93.8
					c2,0,3.4-0.3,4.2-0.9c0.8-0.6,1.3-1.6,1.3-3c0-1.4-0.4-2.4-1.3-3.1c-0.8-0.6-2.2-0.9-4.2-0.9h-6.1v7.9H74.4z"/>
			</g>
		</g>
	</g>
	<g>
		<g transform="translate(201.120498, 339.215988)">
			<g>
				<path class="st1" d="M70.1,113.1V79.2H79v33.9H70.1z"/>
			</g>
		</g>
	</g>
	<g>
		<g transform="translate(218.337934, 339.215988)">
			<g>
				<path class="st1" d="M90.6,113.5c-4.9,0-8.6-1.2-11.2-3.8c-2.5-2.5-3.8-6.2-3.8-11V79.2h8.6v19.9c0,2.4,0.5,4.3,1.6,5.6
					c1.1,1.3,2.7,2,4.7,2c2.1,0,3.6-0.7,4.7-2c1.1-1.3,1.6-3.2,1.6-5.6V79.2h8.7v19.6c0,4.8-1.3,8.4-3.9,10.9
					C99.2,112.3,95.5,113.5,90.6,113.5z"/>
			</g>
		</g>
	</g>
	<g>
		<g transform="translate(251.151577, 339.215988)">
			<g>
				<path class="st1" d="M99,113.5c-2.5,0-5-0.3-7.5-1c-2.5-0.7-4.5-1.6-6-2.7l2.7-6.2c1.6,1,3.4,1.8,5.2,2.4
					c1.9,0.5,3.7,0.8,5.6,0.8c1.9,0,3.4-0.3,4.4-0.8c1-0.5,1.5-1.3,1.5-2.2c0-0.9-0.5-1.6-1.4-2.1c-0.9-0.5-2.6-1.1-5.2-1.6
					c-3.2-0.7-5.7-1.5-7.5-2.4c-1.8-0.9-3.1-2-3.8-3.3c-0.7-1.2-1.1-2.8-1.1-4.6c0-2.1,0.6-3.9,1.8-5.6c1.2-1.7,2.8-2.9,4.9-3.9
					c2.1-0.9,4.6-1.4,7.3-1.4c2.4,0,4.8,0.3,7.1,1c2.3,0.7,4.1,1.6,5.4,2.7l-2.7,6.2c-3.1-2.1-6.3-3.2-9.7-3.2c-1.6,0-3,0.3-4,0.9
					c-1,0.6-1.5,1.5-1.5,2.5c0,0.6,0.2,1.1,0.5,1.5c0.4,0.4,1,0.8,2,1.1c1,0.4,2.4,0.7,4.3,1.1c3.1,0.7,5.5,1.5,7.2,2.4
					c1.8,0.9,3,2,3.8,3.3c0.7,1.2,1.1,2.7,1.1,4.5c0,3.3-1.3,5.9-3.8,7.8C107.3,112.6,103.7,113.5,99,113.5z"/>
			</g>
		</g>
	</g>
</g>
<g>
	<g>
		<defs>
			<rect id="SVGID_7_" x="157.4" y="276.5" width="114" height="114"/>
		</defs>
		<clipPath id="SVGID_8_">
			<use xlink:href="#SVGID_7_"  style="overflow:visible;"/>
		</clipPath>
		<g class="st5">
			<g>
				<defs>
					<path id="SVGID_9_" d="M214.4,276.5c-31.5,0-57,25.5-57,57c0,31.5,25.5,57,57,57s57-25.5,57-57
						C271.4,302,245.9,276.5,214.4,276.5"/>
				</defs>
				<clipPath id="SVGID_10_">
					<use xlink:href="#SVGID_9_"  style="overflow:visible;"/>
				</clipPath>
				<g class="st6">
					<path class="st1" d="M157.4,276.5h114v114h-114V276.5z"/>
				</g>
			</g>
		</g>
	</g>
	<g>
		<g>
			<defs>
				<rect id="SVGID_11_" x="127.1" y="297.1" width="159.7" height="69.6"/>
			</defs>
			<clipPath id="SVGID_12_">
				<use xlink:href="#SVGID_11_"  style="overflow:visible;"/>
			</clipPath>
			<g class="st7">
				<path class="st8" d="M256.1,309c1.4,0,2.6,1.2,2.6,2.6c0,1.4-1.2,2.6-2.6,2.6c-1.4,0-2.6-1.2-2.6-2.6
					C253.5,310.1,254.7,309,256.1,309z M246.3,329.4c1.5,4.7,4,8.3,6.7,10.9c6.1,5.9,15.4,4.7,21.4-1.3
					c10.4-10.6,12.4-25.3,12.4-33.2c0-1.2,0.1-1.9-1-1.2l-6.3,4.2l1.6-9.9c0.1-0.9-0.6-1.8-1.5-1.7c-4.7,0.1-17.4,0.9-26.5,6.1
					c-17.5,9.8-32,32.9-59.8,37.7c-6.1,1.1-18.6,0.7-25.1-1.9c-11.9-4.8-11.8-22.2-19.3-33.4c-0.1,8.7-1.6,14.8-4,19.7l3.9,10.1
					l-5.1-8c-4.2,7.1-10.5,11.6-16.7,18.7c20.8-4.7,30.8,5.2,49.6,13.1c21.5,9,55.6,10.7,83.1-9.6c0.7-0.5,1.3-1,2-1.5
					C247.1,344.6,246.3,329.4,246.3,329.4"/>
			</g>
		</g>
	</g>
	<g>
		<defs>
			<rect id="SVGID_13_" x="232" y="352" width="28" height="22.2"/>
		</defs>
		<clipPath id="SVGID_14_">
			<use xlink:href="#SVGID_13_"  style="overflow:visible;"/>
		</clipPath>
		<g class="st9">
			<path class="st8" d="M258.8,352.4c0,0-4.2,11.5-11.1,17.4c-5,4.3-15.5,4.4-15.5,4.4c5.7-4.8,12.9-13.3,12.9-13.3L258.8,352.4"/>
		</g>
	</g>
	<path class="st8" d="M220.1,366.3c0,0-5.8,5.4-11.4,6.8c-4.1,1-10.2-2-10.2-2c4.7-1.1,11.3-3.9,11.3-3.9L220.1,366.3"/>
	<path class="st8" d="M229.1,320.2l-29.3,2.6l-12.3,14.1l6.8,2.8C194.3,339.7,213,335,229.1,320.2"/>
</g>
</svg>
