<svg xmlns="http://www.w3.org/2000/svg" xmlns:xlink="http://www.w3.org/1999/xlink" viewBox="0 0 159.66 113.99"><defs><style>.cls-1{fill:none;}.cls-2{clip-path:url(#clip-path);}.cls-3{clip-path:url(#clip-path-2);}.cls-4{fill:#fff;}.cls-5{clip-path:url(#clip-path-3);}.cls-6{fill:#0f8b8f;}.cls-7{clip-path:url(#clip-path-4);}</style><clipPath id="clip-path"><rect class="cls-1" x="30.35" width="113.99" height="113.99"/></clipPath><clipPath id="clip-path-2"><path class="cls-1" d="M87.35,0a57,57,0,1,0,57,57,57,57,0,0,0-57-57"/></clipPath><clipPath id="clip-path-3"><rect class="cls-1" y="20.63" width="159.73" height="69.56"/></clipPath><clipPath id="clip-path-4"><rect class="cls-1" x="104.91" y="75.52" width="28" height="22.16"/></clipPath></defs><g id="Layer_2" data-name="Layer 2"><g id="Layer_1-2" data-name="Layer 1"><g class="cls-2"><g class="cls-3"><path class="cls-4" d="M30.35,0h114V114h-114Z"/></g></g><g class="cls-5"><path class="cls-6" d="M129,32.48a2.63,2.63,0,1,1-2.61,2.63A2.63,2.63,0,0,1,129,32.48Zm-9.79,20.45a25.92,25.92,0,0,0,6.67,10.87c6.14,5.86,15.43,4.73,21.36-1.35,10.37-10.63,12.4-25.28,12.38-33.15,0-1.24.07-1.93-.95-1.24l-6.27,4.24L154,22.42a1.5,1.5,0,0,0-1.52-1.74c-4.66.12-17.36.95-26.51,6.07-17.49,9.8-32,32.86-59.77,37.72-6.12,1.07-18.57.66-25.05-1.94C29.3,57.77,29.41,40.33,21.9,29.09c-.06,8.67-1.59,14.77-4,19.65l3.93,10.07-5.06-8C12.51,57.88,6.26,62.45,0,69.49,20.85,64.8,30.77,74.67,49.59,82.6c21.45,9.05,55.64,10.73,83-9.61.67-.5,1.33-1,2-1.5C120,68.07,119.25,52.93,119.25,52.93"/></g><g class="cls-7"><path class="cls-6" d="M131.66,75.89s-4.25,11.53-11.11,17.41c-5,4.27-15.47,4.36-15.47,4.36a145.07,145.07,0,0,0,13-13.27l13.63-8.5"/></g><path class="cls-6" d="M93,89.83s-5.79,5.4-11.44,6.78c-4.1,1-10.16-2-10.16-2a92.66,92.66,0,0,0,11.29-3.86L93,89.83"/><path class="cls-6" d="M102,43.68,72.66,46.3,60.35,60.37l6.82,2.8A87.85,87.85,0,0,0,102,43.68"/></g></g></svg>