<svg xmlns="http://www.w3.org/2000/svg" viewBox="0 0 74.98 87"><defs><style>.cls-1{fill:none;}.cls-2,.cls-3{fill:#079ba2;stroke:#079ba2;stroke-miterlimit:10;}.cls-2{stroke-width:2px;}</style></defs><g id="Layer_2" data-name="Layer 2"><g id="Layer_1-2" data-name="Layer 1"><rect class="cls-1" x="21.1" y="1" width="52.89" height="85"/><path class="cls-2" d="M48.14,7.6c-2.85,8-7,14.82-11,21.43C31,38.94,25.33,48.3,25.33,60.2a22.81,22.81,0,0,0,45.61,0c0-11.9-5.71-21.26-11.76-31.17C55.14,22.42,51,15.63,48.14,7.6Zm0,78.4A25.85,25.85,0,0,1,22.29,60.2c0-12.76,5.93-22.47,12.21-32.75C39.19,19.77,44,11.83,46.67,2.12A1.52,1.52,0,0,1,48.14,1,1.5,1.5,0,0,1,49.6,2.12c2.64,9.71,7.49,17.65,12.17,25.33C68.05,37.73,74,47.44,74,60.2A25.85,25.85,0,0,1,48.14,86"/><rect class="cls-1" x="0.99" y="1" width="34.78" height="75.66"/><path class="cls-2" d="M24.36,76.39C11.79,76.39,1,65.21,1,52.71,1,41.56,6.2,33.09,11.71,24.13c4.1-6.68,8.33-13.58,10.63-22a1.52,1.52,0,0,1,2.94,0c2.11,7.76,4.66,13,8.85,19.79l-1.51,2.67A96.69,96.69,0,0,1,23.81,7.5c-2.5,6.8-6,12.58-9.5,18.21C9,34.31,4,42.42,4,52.71A19.71,19.71,0,0,0,21,72.14c1.61.23,2.38,1.81,2.38,3.43l.43-.19"/><path class="cls-3" d="M17.68,66.05a1.52,1.52,0,0,1-.92-.2A16.61,16.61,0,0,1,8.59,53.21c-.05-.5-.1-1-.11-1.51a1.52,1.52,0,1,1,3-.15c0,.45.06.9.1,1.36A13.56,13.56,0,0,0,18.3,63.23a1.52,1.52,0,0,1,.54,2.07,1.48,1.48,0,0,1-1.16.75"/><path class="cls-2" d="M38.28,58.76H40.8c1.38,0,3.58-.93,3.58-2.08V54.61c0-1.15-2.2-2.08-3.58-2.08H38.28Zm2.52,2.07H37a1.16,1.16,0,0,1-1.26-1v-8.3a1.16,1.16,0,0,1,1.26-1H40.8c2.77,0,5,1.85,5,4.14v2.08c0,2.29-2.25,4.15-5,4.15"/><path class="cls-2" d="M36.81,67.06a1,1,0,0,1-1-1V59.79a1,1,0,0,1,2.08,0V66a1,1,0,0,1-1,1"/><path class="cls-2" d="M50,60.83a1,1,0,0,1-1-1V45.26a1,1,0,0,1,2.08,0V59.79a1,1,0,0,1-1,1"/><path class="cls-2" d="M57.26,60.83a1,1,0,0,1-1-1V45.26a1,1,0,0,1,2.08,0V59.79a1,1,0,0,1-1,1"/><path class="cls-2" d="M57.26,54.6H50a1,1,0,1,1,0-2.07h7.28a1,1,0,1,1,0,2.07"/></g></g></svg>