<svg xmlns="http://www.w3.org/2000/svg" viewBox="0 0 24 24"><defs><style>.cls-1{fill:#fff;}</style></defs><g id="Layer_2" data-name="Layer 2"><g id="Layer_1-2" data-name="Layer 1"><path class="cls-1" d="M12,24a11.81,11.81,0,0,1-1.18-.06,11.17,11.17,0,0,1-1.16-.17,10.56,10.56,0,0,1-1.14-.29,8.63,8.63,0,0,1-1.11-.4,10.41,10.41,0,0,1-1.07-.5c-.34-.18-.68-.39-1-.6s-.64-.45-.94-.7-.6-.52-.88-.79-.54-.57-.79-.88S2.24,19,2,18.67s-.42-.67-.6-1a11.6,11.6,0,0,1-.51-1.07,10.41,10.41,0,0,1-.39-1.11,10.56,10.56,0,0,1-.29-1.14,11.17,11.17,0,0,1-.17-1.16A11.81,11.81,0,0,1,0,12a11.66,11.66,0,0,1,.06-1.18A11.17,11.17,0,0,1,.23,9.66,11.38,11.38,0,0,1,.52,8.51a11.07,11.07,0,0,1,.39-1.1,10.48,10.48,0,0,1,.51-1.07c.18-.34.39-.68.6-1s.45-.64.7-.94.52-.6.79-.88.57-.54.88-.79S5,2.24,5.33,2a11.65,11.65,0,0,1,1-.6A10.48,10.48,0,0,1,7.41.91c.36-.15.73-.28,1.11-.4S9.27.31,9.66.23A11.17,11.17,0,0,1,10.82.06,11.81,11.81,0,0,1,12,0a11.66,11.66,0,0,1,1.18.06,11.17,11.17,0,0,1,1.16.17c.39.08.77.17,1.14.28s.75.25,1.11.4a10.48,10.48,0,0,1,1.07.51,11.65,11.65,0,0,1,1,.6c.32.22.64.45.94.7s.6.52.88.79.54.57.79.88.48.62.7.94a11.65,11.65,0,0,1,.6,1,10.48,10.48,0,0,1,.51,1.07,11.07,11.07,0,0,1,.39,1.1,11.38,11.38,0,0,1,.29,1.15,11.17,11.17,0,0,1,.17,1.16A11.66,11.66,0,0,1,24,12a11.81,11.81,0,0,1-.06,1.18,11.58,11.58,0,0,1-.17,1.16,11.19,11.19,0,0,1-.29,1.14,10.46,10.46,0,0,1-.4,1.11c-.15.36-.32.72-.5,1.06a11.27,11.27,0,0,1-.61,1,9.29,9.29,0,0,1-.7.95c-.25.3-.51.59-.79.87s-.57.54-.87.79a11.07,11.07,0,0,1-.95.7,11.27,11.27,0,0,1-1,.61c-.34.18-.7.35-1.06.5s-.73.28-1.11.4-.75.21-1.14.29-.77.13-1.16.17A11.66,11.66,0,0,1,12,24ZM6.35,21.13a11.27,11.27,0,0,0,2.72,1.2,11.65,11.65,0,0,0,1.45.3,10,10,0,0,0,3,0,12.19,12.19,0,0,0,1.46-.3,11.57,11.57,0,0,0,1.39-.51,11,11,0,0,0,1.32-.69c-.31-1.57-1.73-7.4-5.65-7.4S6.66,19.56,6.35,21.13ZM14.28,13c2.85,1.45,4.06,5.43,4.49,7.32a9.61,9.61,0,0,0,.82-.74c.26-.26.5-.53.74-.81s.44-.58.64-.89a9.09,9.09,0,0,0,.56-.95c.17-.32.32-.66.46-1s.25-.69.35-1a10.7,10.7,0,0,0,.37-2.17,10.91,10.91,0,0,0-.07-2.19,10.28,10.28,0,0,0-.21-1.08,10,10,0,0,0-.73-2.07c-.16-.33-.33-.66-.52-1s-.4-.62-.62-.91-.46-.57-.71-.84-.52-.52-.79-.77-.57-.46-.87-.67a9.1,9.1,0,0,0-.93-.59,9,9,0,0,0-1-.49c-.34-.15-.68-.27-1-.39a10.3,10.3,0,0,0-1.06-.27,8.22,8.22,0,0,0-1.09-.17,10.11,10.11,0,0,0-2.2,0,8.08,8.08,0,0,0-1.08.17,9.85,9.85,0,0,0-1.07.27c-.35.12-.69.24-1,.39a10,10,0,0,0-1,.49,9.1,9.1,0,0,0-.93.59c-.3.21-.59.43-.87.67s-.54.5-.79.77-.48.55-.71.84-.42.6-.61.91-.37.64-.53,1-.29.67-.42,1a9.88,9.88,0,0,0-.31,1.06,10.28,10.28,0,0,0-.21,1.08,10.91,10.91,0,0,0-.07,2.19,10.7,10.7,0,0,0,.37,2.17c.1.35.22.7.35,1s.29.68.46,1a9.09,9.09,0,0,0,.56.95,9.19,9.19,0,0,0,.65.89c.23.28.47.55.73.81a9.61,9.61,0,0,0,.82.74c.43-1.89,1.64-5.87,4.49-7.32a4,4,0,0,1-1.13-1.22A4,4,0,0,1,8.24,11a3.66,3.66,0,0,1-.18-.81,4.6,4.6,0,0,1,0-.83,4.42,4.42,0,0,1,.17-.82,4,4,0,0,1,.33-.76A3.37,3.37,0,0,1,9,7.13a3.65,3.65,0,0,1,.62-.56,3.23,3.23,0,0,1,.72-.42,3.18,3.18,0,0,1,.79-.26,3.87,3.87,0,0,1,1.66,0,3.18,3.18,0,0,1,.79.26,3.23,3.23,0,0,1,.72.42,3.31,3.31,0,0,1,.62.56,3.37,3.37,0,0,1,.49.68,3.43,3.43,0,0,1,.33.76,3.73,3.73,0,0,1,.17.82,4.6,4.6,0,0,1,0,.83,3.66,3.66,0,0,1-.18.81,4,4,0,0,1-.35.76A4,4,0,0,1,14.28,13ZM12,7.06a3.17,3.17,0,0,0-.53.05,2.91,2.91,0,0,0-.5.16,2.6,2.6,0,0,0-.47.24,2.74,2.74,0,0,0-.41.34,2.64,2.64,0,0,0-.34.41,3,3,0,0,0-.25.47,2.15,2.15,0,0,0-.15.51,2.78,2.78,0,0,0,0,1,2.46,2.46,0,0,0,.15.51,2.55,2.55,0,0,0,.25.46,2.87,2.87,0,0,0,.75.75,2.64,2.64,0,0,0,.47.25,2.91,2.91,0,0,0,.5.16,2.83,2.83,0,0,0,1.06,0,3.33,3.33,0,0,0,.51-.16A2.94,2.94,0,0,0,13.5,12a2.87,2.87,0,0,0,.75-.75,2.55,2.55,0,0,0,.25-.46,2.46,2.46,0,0,0,.15-.51,2.32,2.32,0,0,0,0-.53,2.29,2.29,0,0,0,0-.52,2.15,2.15,0,0,0-.15-.51,3,3,0,0,0-.25-.47,2.64,2.64,0,0,0-.34-.41,2.2,2.2,0,0,0-.41-.33A2.12,2.12,0,0,0,13,7.27a2.91,2.91,0,0,0-.5-.16A3.17,3.17,0,0,0,12,7.06Z"/></g></g></svg>