<svg xmlns="http://www.w3.org/2000/svg" xmlns:xlink="http://www.w3.org/1999/xlink" viewBox="0 0 54.36 113.31"><defs><style>.cls-1{fill:none;}.cls-2{clip-path:url(#clip-path);}.cls-3,.cls-6,.cls-7{fill:#079ba2;}.cls-4{clip-path:url(#clip-path-2);}.cls-5{clip-path:url(#clip-path-3);}.cls-6,.cls-7{stroke:#079ba2;stroke-miterlimit:10;}.cls-6{stroke-width:2px;}.cls-7{stroke-width:0.75px;}</style><clipPath id="clip-path"><rect class="cls-1" x="40.94" y="62.32" width="13.47" height="5.81"/></clipPath><clipPath id="clip-path-2"><rect class="cls-1" x="40.94" y="46.33" width="13.47" height="5.81"/></clipPath><clipPath id="clip-path-3"><rect class="cls-1" x="40.94" y="28.89" width="13.47" height="5.81"/></clipPath></defs><g id="Layer_2" data-name="Layer 2"><g id="Layer_1-2" data-name="Layer 1"><g class="cls-2"><path class="cls-3" d="M41.6,63.53H54.36v4.23H41.6V63.53"/></g><path class="cls-3" d="M41.6,55.05H48v4.24H41.6V55.05"/><g class="cls-4"><path class="cls-3" d="M41.6,46.58H54.36v4.24H41.6V46.58"/></g><path class="cls-3" d="M41.6,38.11H48v4.23H41.6V38.11"/><g class="cls-5"><path class="cls-3" d="M41.6,29.63H54.36v4.23H41.6V29.63"/></g><rect class="cls-1" x="3.17" width="42.86" height="112.29"/><path class="cls-6" d="M36.23,72.75A22.65,22.65,0,0,1,44.49,80,19.6,19.6,0,0,1,48,91.12a20.14,20.14,0,0,1-6.89,15,24.8,24.8,0,0,1-16.63,6.2,24.79,24.79,0,0,1-16.62-6.2A20.14,20.14,0,0,1,1,91.12,19.59,19.59,0,0,1,4.53,80a22.76,22.76,0,0,1,8.27-7.2V22.36a10,10,0,0,1,3.44-7.46,12.59,12.59,0,0,1,16.55,0,10,10,0,0,1,3.44,7.46Zm4.28,9.43a18.51,18.51,0,0,0-7.67-6.27l-1.31-.58v-53a6,6,0,0,0-2.07-4.46,7.52,7.52,0,0,0-9.9,0,6,6,0,0,0-2,4.46v53l-1.32.58a18.39,18.39,0,0,0-7.67,6.27A15.66,15.66,0,0,0,5.7,91.12a16.13,16.13,0,0,0,5.51,12,19.87,19.87,0,0,0,13.3,5,19.85,19.85,0,0,0,13.3-5,16.11,16.11,0,0,0,5.52-12,15.73,15.73,0,0,0-2.82-8.94"/><path class="cls-7" d="M26.64,80.68A10.63,10.63,0,0,1,32,83.57a10.54,10.54,0,0,1,0,15,10.66,10.66,0,0,1-15,0,10.51,10.51,0,0,1,0-15,10.64,10.64,0,0,1,5.39-2.89V36h4.26ZM29,86.55a6.41,6.41,0,0,0-9,0,6.34,6.34,0,0,0,0,9,6.43,6.43,0,0,0,9,0,6.34,6.34,0,0,0,0-9"/></g></g></svg>